# This file uses centimeters as units for non-parametric coordinates.

mtllib roadStraight.mtl
g default
v -15.716184 -0.668343 0.500000
v -14.716184 -0.668343 0.500000
v -15.716184 0.331657 0.500000
v -14.716184 0.331657 0.500000
v -15.716184 0.331657 -0.500000
v -14.716184 0.331657 -0.500000
v -15.716184 -0.668343 -0.500000
v -14.716184 -0.668343 -0.500000
vt 0.375000 0.000000
vt 0.625000 0.000000
vt 0.375000 0.250000
vt 0.625000 0.250000
vt 0.375000 0.500000
vt 0.625000 0.500000
vt 0.375000 0.750000
vt 0.625000 0.750000
vt 0.375000 1.000000
vt 0.625000 1.000000
vt 0.875000 0.000000
vt 0.875000 0.250000
vt 0.125000 0.000000
vt 0.125000 0.250000
vn 0.000000 0.000000 1.000000
vn 0.000000 0.000000 1.000000
vn 0.000000 0.000000 1.000000
vn 0.000000 0.000000 1.000000
vn 0.000000 1.000000 0.000000
vn 0.000000 1.000000 0.000000
vn 0.000000 1.000000 0.000000
vn 0.000000 1.000000 0.000000
vn 0.000000 0.000000 -1.000000
vn 0.000000 0.000000 -1.000000
vn 0.000000 0.000000 -1.000000
vn 0.000000 0.000000 -1.000000
vn 0.000000 -1.000000 0.000000
vn 0.000000 -1.000000 0.000000
vn 0.000000 -1.000000 0.000000
vn 0.000000 -1.000000 0.000000
vn 1.000000 0.000000 0.000000
vn 1.000000 0.000000 0.000000
vn 1.000000 0.000000 0.000000
vn 1.000000 0.000000 0.000000
vn -1.000000 0.000000 0.000000
vn -1.000000 0.000000 0.000000
vn -1.000000 0.000000 0.000000
vn -1.000000 0.000000 0.000000
s off
g pCube8
usemtl initialShadingGroup
f 1/1/1 2/2/2 4/4/3 3/3/4
f 3/3/5 4/4/6 6/6/7 5/5/8
f 5/5/9 6/6/10 8/8/11 7/7/12
f 7/7/13 8/8/14 2/10/15 1/9/16
f 2/2/17 8/11/18 6/12/19 4/4/20
f 7/13/21 1/1/22 3/3/23 5/14/24
g default
v -15.000000 -0.500000 15.000000
v 15.000000 -0.500000 15.000000
v -15.000000 0.500000 15.000000
v 15.000000 0.500000 15.000000
v -15.000000 0.500000 -15.000000
v 15.000000 0.500000 -15.000000
v -15.000000 -0.500000 -15.000000
v 15.000000 -0.500000 -15.000000
v -7.185148 0.500000 15.000000
v -7.185148 0.500000 -15.000000
v -7.185148 -0.500000 -15.000000
v -7.185148 -0.500000 15.000000
v 7.052182 0.500000 15.000000
v 7.052182 0.500000 -15.000000
v 7.052182 -0.500000 -15.000000
v 7.052182 -0.500000 15.000000
vt 0.375000 0.000000
vt 0.625000 0.000000
vt 0.375000 0.250000
vt 0.625000 0.250000
vt 0.375000 0.500000
vt 0.625000 0.500000
vt 0.375000 0.750000
vt 0.625000 0.750000
vt 0.375000 1.000000
vt 0.625000 1.000000
vt 0.875000 0.000000
vt 0.875000 0.250000
vt 0.125000 0.000000
vt 0.125000 0.250000
vt 0.440124 0.250000
vt 0.440124 0.500000
vt 0.440124 0.750000
vt 0.440124 0.000000
vt 0.440124 1.000000
vt 0.558768 0.250000
vt 0.558768 0.500000
vt 0.558768 0.750000
vt 0.558768 0.000000
vt 0.558768 1.000000
vt -0.564170 1.005031
vt -0.564170 -0.005031
vt 1.564170 -0.005031
vt 1.564170 1.005031
vn 0.000000 0.000000 1.000000
vn 0.000000 0.000000 1.000000
vn 0.000000 0.000000 1.000000
vn 0.000000 0.000000 1.000000
vn 0.000000 1.000000 0.000000
vn 0.000000 1.000000 0.000000
vn 0.000000 1.000000 0.000000
vn 0.000000 1.000000 0.000000
vn 0.000000 0.000000 -1.000000
vn 0.000000 0.000000 -1.000000
vn 0.000000 0.000000 -1.000000
vn 0.000000 0.000000 -1.000000
vn 0.000000 -1.000000 0.000000
vn 0.000000 -1.000000 0.000000
vn 0.000000 -1.000000 0.000000
vn 0.000000 -1.000000 0.000000
vn 1.000000 0.000000 0.000000
vn 1.000000 0.000000 0.000000
vn 1.000000 0.000000 0.000000
vn 1.000000 0.000000 0.000000
vn -1.000000 0.000000 0.000000
vn -1.000000 0.000000 0.000000
vn -1.000000 0.000000 0.000000
vn -1.000000 0.000000 0.000000
vn 0.000000 1.000000 0.000000
vn 0.000000 1.000000 0.000000
vn 0.000000 0.000000 -1.000000
vn 0.000000 0.000000 -1.000000
vn 0.000000 -1.000000 0.000000
vn 0.000000 -1.000000 0.000000
vn 0.000000 0.000000 1.000000
vn 0.000000 0.000000 1.000000
vn 0.000000 1.000000 0.000000
vn 0.000000 1.000000 0.000000
vn 0.000000 0.000000 -1.000000
vn 0.000000 0.000000 -1.000000
vn 0.000000 -1.000000 0.000000
vn 0.000000 -1.000000 0.000000
vn 0.000000 0.000000 1.000000
vn 0.000000 0.000000 1.000000
s 1
g pCube1
usemtl aiStandardSurface1SG
f 9/15/25 20/32/26 17/29/27 11/17/28
s 2
f 11/17/29 17/29/30 18/30/31 13/19/32
s 3
f 13/19/33 18/30/34 19/31/35 15/21/36
s 4
f 15/21/37 19/31/38 20/33/39 9/23/40
s off
f 10/16/41 16/25/42 14/26/43 12/18/44
f 15/27/45 9/15/46 11/17/47 13/28/48
s 2
usemtl aiStandardSurface2SG
f 17/39/30 21/40/49 22/41/50 18/42/31
s 3
usemtl aiStandardSurface1SG
f 19/31/35 18/30/34 22/35/51 23/36/52
s 4
f 20/33/39 19/31/38 23/36/53 24/38/54
s 1
f 17/29/27 20/32/26 24/37/55 21/34/56
s 2
f 21/34/49 12/18/57 14/20/58 22/35/50
s 3
f 23/36/52 22/35/51 14/20/59 16/22/60
s 4
f 24/38/54 23/36/53 16/22/61 10/24/62
s 1
f 21/34/56 24/37/55 10/16/63 12/18/64
g default
v -0.500000 -0.667192 15.815998
v 0.500000 -0.667192 15.815998
v -0.500000 0.332808 15.815998
v 0.500000 0.332808 15.815998
v -0.500000 0.332808 14.815998
v 0.500000 0.332808 14.815998
v -0.500000 -0.667192 14.815998
v 0.500000 -0.667192 14.815998
vt 0.375000 0.000000
vt 0.625000 0.000000
vt 0.375000 0.250000
vt 0.625000 0.250000
vt 0.375000 0.500000
vt 0.625000 0.500000
vt 0.375000 0.750000
vt 0.625000 0.750000
vt 0.375000 1.000000
vt 0.625000 1.000000
vt 0.875000 0.000000
vt 0.875000 0.250000
vt 0.125000 0.000000
vt 0.125000 0.250000
vn 0.000000 0.000000 1.000000
vn 0.000000 0.000000 1.000000
vn 0.000000 0.000000 1.000000
vn 0.000000 0.000000 1.000000
vn 0.000000 1.000000 0.000000
vn 0.000000 1.000000 0.000000
vn 0.000000 1.000000 0.000000
vn 0.000000 1.000000 0.000000
vn 0.000000 0.000000 -1.000000
vn 0.000000 0.000000 -1.000000
vn 0.000000 0.000000 -1.000000
vn 0.000000 0.000000 -1.000000
vn 0.000000 -1.000000 0.000000
vn 0.000000 -1.000000 0.000000
vn 0.000000 -1.000000 0.000000
vn 0.000000 -1.000000 0.000000
vn 1.000000 0.000000 0.000000
vn 1.000000 0.000000 0.000000
vn 1.000000 0.000000 0.000000
vn 1.000000 0.000000 0.000000
vn -1.000000 0.000000 0.000000
vn -1.000000 0.000000 0.000000
vn -1.000000 0.000000 0.000000
vn -1.000000 0.000000 0.000000
s off
g pCube2
usemtl initialShadingGroup
f 25/43/65 26/44/66 28/46/67 27/45/68
f 27/45/69 28/46/70 30/48/71 29/47/72
f 29/47/73 30/48/74 32/50/75 31/49/76
f 31/49/77 32/50/78 26/52/79 25/51/80
f 26/44/81 32/53/82 30/54/83 28/46/84
f 31/55/85 25/43/86 27/45/87 29/56/88
g default
v 14.623126 -0.579350 0.500000
v 15.623126 -0.579350 0.500000
v 14.623126 0.420650 0.500000
v 15.623126 0.420650 0.500000
v 14.623126 0.420650 -0.500000
v 15.623126 0.420650 -0.500000
v 14.623126 -0.579350 -0.500000
v 15.623126 -0.579350 -0.500000
vt 0.375000 0.000000
vt 0.625000 0.000000
vt 0.375000 0.250000
vt 0.625000 0.250000
vt 0.375000 0.500000
vt 0.625000 0.500000
vt 0.375000 0.750000
vt 0.625000 0.750000
vt 0.375000 1.000000
vt 0.625000 1.000000
vt 0.875000 0.000000
vt 0.875000 0.250000
vt 0.125000 0.000000
vt 0.125000 0.250000
vn 0.000000 0.000000 1.000000
vn 0.000000 0.000000 1.000000
vn 0.000000 0.000000 1.000000
vn 0.000000 0.000000 1.000000
vn 0.000000 1.000000 0.000000
vn 0.000000 1.000000 0.000000
vn 0.000000 1.000000 0.000000
vn 0.000000 1.000000 0.000000
vn 0.000000 0.000000 -1.000000
vn 0.000000 0.000000 -1.000000
vn 0.000000 0.000000 -1.000000
vn 0.000000 0.000000 -1.000000
vn 0.000000 -1.000000 0.000000
vn 0.000000 -1.000000 0.000000
vn 0.000000 -1.000000 0.000000
vn 0.000000 -1.000000 0.000000
vn 1.000000 0.000000 0.000000
vn 1.000000 0.000000 0.000000
vn 1.000000 0.000000 0.000000
vn 1.000000 0.000000 0.000000
vn -1.000000 0.000000 0.000000
vn -1.000000 0.000000 0.000000
vn -1.000000 0.000000 0.000000
vn -1.000000 0.000000 0.000000
s off
g pCube3
usemtl initialShadingGroup
f 33/57/89 34/58/90 36/60/91 35/59/92
f 35/59/93 36/60/94 38/62/95 37/61/96
f 37/61/97 38/62/98 40/64/99 39/63/100
f 39/63/101 40/64/102 34/66/103 33/65/104
f 34/58/105 40/67/106 38/68/107 36/60/108
f 39/69/109 33/57/110 35/59/111 37/70/112
g default
v -0.500000 -0.670008 -14.752766
v 0.500000 -0.670008 -14.752766
v -0.500000 0.329992 -14.752766
v 0.500000 0.329992 -14.752766
v -0.500000 0.329992 -15.752766
v 0.500000 0.329992 -15.752766
v -0.500000 -0.670008 -15.752766
v 0.500000 -0.670008 -15.752766
vt 0.375000 0.000000
vt 0.625000 0.000000
vt 0.375000 0.250000
vt 0.625000 0.250000
vt 0.375000 0.500000
vt 0.625000 0.500000
vt 0.375000 0.750000
vt 0.625000 0.750000
vt 0.375000 1.000000
vt 0.625000 1.000000
vt 0.875000 0.000000
vt 0.875000 0.250000
vt 0.125000 0.000000
vt 0.125000 0.250000
vn 0.000000 0.000000 1.000000
vn 0.000000 0.000000 1.000000
vn 0.000000 0.000000 1.000000
vn 0.000000 0.000000 1.000000
vn 0.000000 1.000000 0.000000
vn 0.000000 1.000000 0.000000
vn 0.000000 1.000000 0.000000
vn 0.000000 1.000000 0.000000
vn 0.000000 0.000000 -1.000000
vn 0.000000 0.000000 -1.000000
vn 0.000000 0.000000 -1.000000
vn 0.000000 0.000000 -1.000000
vn 0.000000 -1.000000 0.000000
vn 0.000000 -1.000000 0.000000
vn 0.000000 -1.000000 0.000000
vn 0.000000 -1.000000 0.000000
vn 1.000000 0.000000 0.000000
vn 1.000000 0.000000 0.000000
vn 1.000000 0.000000 0.000000
vn 1.000000 0.000000 0.000000
vn -1.000000 0.000000 0.000000
vn -1.000000 0.000000 0.000000
vn -1.000000 0.000000 0.000000
vn -1.000000 0.000000 0.000000
s off
g pCube4
usemtl initialShadingGroup
f 41/71/113 42/72/114 44/74/115 43/73/116
f 43/73/117 44/74/118 46/76/119 45/75/120
f 45/75/121 46/76/122 48/78/123 47/77/124
f 47/77/125 48/78/126 42/80/127 41/79/128
f 42/72/129 48/81/130 46/82/131 44/74/132
f 47/83/133 41/71/134 43/73/135 45/84/136
g default
v -7.500000 0.510204 15.373844
v -6.500000 0.510204 15.373844
v -7.500000 1.510204 15.373844
v -6.500000 1.510204 15.373844
v -7.500000 1.510204 -15.373844
v -6.500000 1.510204 -15.373844
v -7.500000 0.510204 -15.373844
v -6.500000 0.510204 -15.373844
vt 0.375000 0.000000
vt 0.625000 0.000000
vt 0.375000 0.250000
vt 0.625000 0.250000
vt 0.375000 0.500000
vt 0.625000 0.500000
vt 0.375000 0.750000
vt 0.625000 0.750000
vt 0.375000 1.000000
vt 0.625000 1.000000
vt 0.875000 0.000000
vt 0.875000 0.250000
vt 0.125000 0.000000
vt 0.125000 0.250000
vn 0.000000 0.000000 1.000000
vn 0.000000 0.000000 1.000000
vn 0.000000 0.000000 1.000000
vn 0.000000 0.000000 1.000000
vn 0.000000 1.000000 0.000000
vn 0.000000 1.000000 0.000000
vn 0.000000 1.000000 0.000000
vn 0.000000 1.000000 0.000000
vn 0.000000 0.000000 -1.000000
vn 0.000000 0.000000 -1.000000
vn 0.000000 0.000000 -1.000000
vn 0.000000 0.000000 -1.000000
vn 0.000000 -1.000000 0.000000
vn 0.000000 -1.000000 0.000000
vn 0.000000 -1.000000 0.000000
vn 0.000000 -1.000000 0.000000
vn 1.000000 0.000000 0.000000
vn 1.000000 0.000000 0.000000
vn 1.000000 0.000000 0.000000
vn 1.000000 0.000000 0.000000
vn -1.000000 0.000000 0.000000
vn -1.000000 0.000000 0.000000
vn -1.000000 0.000000 0.000000
vn -1.000000 0.000000 0.000000
s off
g pCube7
usemtl initialShadingGroup
f 49/85/137 50/86/138 52/88/139 51/87/140
f 51/87/141 52/88/142 54/90/143 53/89/144
f 53/89/145 54/90/146 56/92/147 55/91/148
f 55/91/149 56/92/150 50/94/151 49/93/152
f 50/86/153 56/95/154 54/96/155 52/88/156
f 55/97/157 49/85/158 51/87/159 53/98/160
g default
v 6.500000 0.395895 15.037036
v 7.500000 0.395895 15.037036
v 6.500000 1.395895 15.037036
v 7.500000 1.395895 15.037036
v 6.500000 1.395895 -15.037036
v 7.500000 1.395895 -15.037036
v 6.500000 0.395895 -15.037036
v 7.500000 0.395895 -15.037036
vt 0.375000 0.000000
vt 0.625000 0.000000
vt 0.375000 0.250000
vt 0.625000 0.250000
vt 0.375000 0.500000
vt 0.625000 0.500000
vt 0.375000 0.750000
vt 0.625000 0.750000
vt 0.375000 1.000000
vt 0.625000 1.000000
vt 0.875000 0.000000
vt 0.875000 0.250000
vt 0.125000 0.000000
vt 0.125000 0.250000
vn 0.000000 0.000000 1.000000
vn 0.000000 0.000000 1.000000
vn 0.000000 0.000000 1.000000
vn 0.000000 0.000000 1.000000
vn 0.000000 1.000000 0.000000
vn 0.000000 1.000000 0.000000
vn 0.000000 1.000000 0.000000
vn 0.000000 1.000000 0.000000
vn 0.000000 0.000000 -1.000000
vn 0.000000 0.000000 -1.000000
vn 0.000000 0.000000 -1.000000
vn 0.000000 0.000000 -1.000000
vn 0.000000 -1.000000 0.000000
vn 0.000000 -1.000000 0.000000
vn 0.000000 -1.000000 0.000000
vn 0.000000 -1.000000 0.000000
vn 1.000000 0.000000 0.000000
vn 1.000000 0.000000 0.000000
vn 1.000000 0.000000 0.000000
vn 1.000000 0.000000 0.000000
vn -1.000000 0.000000 0.000000
vn -1.000000 0.000000 0.000000
vn -1.000000 0.000000 0.000000
vn -1.000000 0.000000 0.000000
s off
g pCube5
usemtl initialShadingGroup
f 57/99/161 58/100/162 60/102/163 59/101/164
f 59/101/165 60/102/166 62/104/167 61/103/168
f 61/103/169 62/104/170 64/106/171 63/105/172
f 63/105/173 64/106/174 58/108/175 57/107/176
f 58/100/177 64/109/178 62/110/179 60/102/180
f 63/111/181 57/99/182 59/101/183 61/112/184
